<svg xmlns="http://www.w3.org/2000/svg" viewBox="0 0 48 48" role="img" aria-label="Cloudflare">
  <rect width="48" height="48" rx="10" fill="#FFF7ED"/>
  <path fill="#F6821F" d="M33.6 28.4c.3-.9.2-1.7-.3-2.4-.5-.7-1.3-1.1-2.2-1.2l-14.1-.7c-.3 0-.5-.2-.6-.4-.1-.3 0-.5.2-.7.3-.4.9-.7 1.5-.7l14.6.2c2.1.1 4.4-1.2 5.4-3.1.4-.7.6-1.4.6-2.2 0-.2 0-.3-.1-.5C37.4 12.2 32.6 9 27.2 9c-4.5 0-8.4 2.7-10.1 6.6-1.1-.6-2.4-.8-3.7-.5-2.3.5-4.1 2.3-4.6 4.6-.1.5-.2 1-.2 1.5 0 .2 0 .4.1.6C5.4 22.2 3 25 3 28.4c0 .3 0 .6.1.9.1.3.3.5.6.5h28.6c.4 0 .7-.2.9-.5.2-.3.4-.6.4-.9z"/>
  <path fill="#FBAD41" d="M37.8 21.3c-.2 0-.4 0-.6.1-.3-3.5-3.2-6.2-6.7-6.2-.5 0-1 .1-1.5.2 1.5 1.1 2.5 2.8 2.7 4.8l.1.8 1.2.1c1 .1 1.8.6 2.3 1.4.2.3.3.6.4.9h2.1z"/>
</svg>
