<svg xmlns="http://www.w3.org/2000/svg" viewBox="0 0 48 48" role="img" aria-label="Cloudflare">
  <rect width="48" height="48" rx="12" fill="#FFFFFF" stroke="#E2E8F0" stroke-width="1"/>
  <path fill="#F6821F" d="M33.1 30.6c.3-.85.18-1.65-.35-2.35-.52-.7-1.35-1.1-2.25-1.2l-14.2-.65c-.28-.05-.48-.25-.52-.48-.05-.28.05-.52.22-.68.35-.4.92-.68 1.55-.68l14.7.18c2.12.12 4.4-1.2 5.42-3.1.4-.7.62-1.42.62-2.22 0-.18 0-.35-.05-.52C36.9 14.05 32.1 10.9 26.7 10.9c-4.55 0-8.45 2.7-10.15 6.55-1.15-.62-2.4-.8-3.7-.5-2.3.52-4.1 2.3-4.62 4.62-.12.52-.18 1.02-.18 1.55 0 .18 0 .4.05.58C4.85 24.5 2.4 27.3 2.4 30.7c0 .3.05.62.12.92.12.28.35.52.62.52h28.9c.4 0 .7-.22.85-.52.22-.3.35-.62.35-.92-.05-.05-.1-.05-.14 0z"/>
  <path fill="#FBAD41" d="M37.3 23.35c-.18 0-.4 0-.62.1-.28-3.5-3.2-6.22-6.75-6.22-.52 0-1.02.05-1.48.18 1.48 1.08 2.5 2.8 2.68 4.8l.1.8 1.2.12c1.02.12 1.82.62 2.28 1.28.28-.28.4-.62.45-.98h2.14z"/>
</svg>
