<svg xmlns="http://www.w3.org/2000/svg" viewBox="0 0 48 48" role="img" aria-label="Squarespace">
  <rect width="48" height="48" rx="12" fill="#111111"/>
  <path fill="#FFFFFF" d="M24 12.5c-2.4 0-4.4 1.2-5.6 3.1 1.1-.7 2.4-1.1 3.8-1.1 3.6 0 6.5 2.9 6.5 6.5 0 1.4-.4 2.7-1.1 3.8 1.9-1.2 3.1-3.2 3.1-5.6 0-3.7-3-6.7-6.7-6.7zm-5.6 8.4c0-1.4.4-2.7 1.1-3.8-1.9 1.2-3.1 3.2-3.1 5.6 0 3.7 3 6.7 6.7 6.7 2.4 0 4.4-1.2 5.6-3.1-1.1.7-2.4 1.1-3.8 1.1-3.6 0-6.5-2.9-6.5-6.5zm5.6 14.6c2.4 0 4.4-1.2 5.6-3.1-1.1.7-2.4 1.1-3.8 1.1-3.6 0-6.5-2.9-6.5-6.5 0-1.4.4-2.7 1.1-3.8-1.9 1.2-3.1 3.2-3.1 5.6 0 3.7 3 6.7 6.7 6.7zm5.6-8.4c0 1.4-.4 2.7-1.1 3.8 1.9-1.2 3.1-3.2 3.1-5.6 0-3.7-3-6.7-6.7-6.7-2.4 0-4.4 1.2-5.6 3.1 1.1-.7 2.4-1.1 3.8-1.1 3.6 0 6.5 2.9 6.5 6.5z"/>
</svg>
