<svg xmlns="http://www.w3.org/2000/svg" viewBox="0 0 48 48" role="img" aria-label="Squarespace">
  <rect width="48" height="48" rx="10" fill="#111111"/>
  <path fill="#FFF" d="M24 12c-2.8 0-5.1 1.4-6.6 3.5 2.1-1.2 4.4-1.4 6.6-.5 2.2-.9 4.5-.7 6.6.5C28.1 13.4 25.8 12 24 12zm-8.8 6.2c-1.4 1.7-2.2 3.9-2.2 6.3 0 .7.1 1.4.2 2.1 1.5-2.4 3.7-4.3 6.4-5.4-1.9-.9-3.4-2-4.4-3zm17.6 0c-1 1-2.5 2.1-4.4 3 2.7 1.1 4.9 3 6.4 5.4.1-.7.2-1.4.2-2.1 0-2.4-.8-4.6-2.2-6.3zM24 20.5c-3.6 0-6.7 2.2-8.1 5.4 1.9-1.3 4.2-2 6.6-2h3c2.4 0 4.7.7 6.6 2-1.4-3.2-4.5-5.4-8.1-5.4zm-9.8 8.7c1.6 3.1 4.8 5.3 8.5 5.3h2.6c3.7 0 6.9-2.2 8.5-5.3-2-1.6-4.5-2.5-7.2-2.5h-5.2c-2.7 0-5.2.9-7.2 2.5z"/>
</svg>
